<mxfile host="app.diagrams.net" modified="2022-07-18T03:56:58.923Z" agent="5.0 (Windows NT 10.0; Win64; x64) AppleWebKit/537.36 (KHTML, like Gecko) Chrome/103.0.0.0 Safari/537.36" etag="ZwYIJ5U5PFSMe9JeR1KC" version="20.1.1" type="github">
  <diagram name="Page-1" id="e7e014a7-5840-1c2e-5031-d8a46d1fe8dd">
    <mxGraphModel dx="1383" dy="731" grid="1" gridSize="10" guides="1" tooltips="1" connect="1" arrows="1" fold="1" page="1" pageScale="1" pageWidth="1169" pageHeight="826" background="none" math="0" shadow="0">
      <root>
        <mxCell id="0" />
        <mxCell id="1" parent="0" />
        <mxCell id="2" value="Action" style="swimlane;whiteSpace=wrap" parent="1" vertex="1">
          <mxGeometry x="40" y="128" width="280" height="672" as="geometry" />
        </mxCell>
        <mxCell id="7" value="S3 DB에서 원자재, 주식&#xa;지수 데이터 가져오기" style="fontSize=15;" parent="2" vertex="1">
          <mxGeometry x="40" y="72" width="200" height="78" as="geometry" />
        </mxCell>
        <mxCell id="20" value="" style="endArrow=open;strokeColor=#FF0000;endFill=1;rounded=0;entryX=-0.01;entryY=0.487;entryDx=0;entryDy=0;entryPerimeter=0;" parent="2" target="5UBM1-Wupk07-t0-wOQC-48" edge="1">
          <mxGeometry relative="1" as="geometry">
            <mxPoint x="240" y="110.5" as="sourcePoint" />
            <mxPoint x="425" y="110.5" as="targetPoint" />
          </mxGeometry>
        </mxCell>
        <mxCell id="5UBM1-Wupk07-t0-wOQC-54" value="오늘 날짜(yyyy-mm-dd)&#xa;가지고 오기" style="fontSize=15;" parent="2" vertex="1">
          <mxGeometry x="40" y="192" width="200" height="78" as="geometry" />
        </mxCell>
        <mxCell id="5UBM1-Wupk07-t0-wOQC-55" value="sdate+1 day ~ edate까지&#xa;원자재, 주식, 지수 데이터&#xa;수집하기" style="fontSize=15;" parent="2" vertex="1">
          <mxGeometry x="40" y="312" width="200" height="78" as="geometry" />
        </mxCell>
        <mxCell id="5UBM1-Wupk07-t0-wOQC-56" value="edate" style="endArrow=open;strokeColor=#FF0000;endFill=1;rounded=0;entryX=0.495;entryY=0.006;entryDx=0;entryDy=0;entryPerimeter=0;exitX=0.495;exitY=0.994;exitDx=0;exitDy=0;exitPerimeter=0;" parent="2" source="5UBM1-Wupk07-t0-wOQC-54" target="5UBM1-Wupk07-t0-wOQC-55" edge="1">
          <mxGeometry relative="1" as="geometry">
            <mxPoint x="250" y="120.5" as="sourcePoint" />
            <mxPoint x="608" y="119.98599999999999" as="targetPoint" />
          </mxGeometry>
        </mxCell>
        <mxCell id="5UBM1-Wupk07-t0-wOQC-65" value="데이터 S3에 업로드 하기" style="fontSize=15;" parent="2" vertex="1">
          <mxGeometry x="40" y="552" width="200" height="78" as="geometry" />
        </mxCell>
        <mxCell id="3" value="Calculation" style="swimlane;whiteSpace=wrap" parent="1" vertex="1">
          <mxGeometry x="320" y="128" width="280" height="672" as="geometry" />
        </mxCell>
        <mxCell id="5UBM1-Wupk07-t0-wOQC-49" value="데이터프레임 마지막 행, &#xa;첫번째 열(Date) 가지고 오기" style="fontSize=15;" parent="3" vertex="1">
          <mxGeometry x="40" y="192" width="200" height="78" as="geometry" />
        </mxCell>
        <mxCell id="5UBM1-Wupk07-t0-wOQC-60" value="" style="endArrow=open;strokeColor=#FF0000;endFill=1;rounded=0;entryX=-0.01;entryY=0.487;entryDx=0;entryDy=0;entryPerimeter=0;" parent="3" edge="1">
          <mxGeometry relative="1" as="geometry">
            <mxPoint x="-39" y="352.51" as="sourcePoint" />
            <mxPoint x="319" y="351.996" as="targetPoint" />
          </mxGeometry>
        </mxCell>
        <mxCell id="5UBM1-Wupk07-t0-wOQC-62" value="두개의 데이터 합치기&#xa;pd.concat([df1, df2])" style="fontSize=15;" parent="3" vertex="1">
          <mxGeometry x="40" y="432" width="200" height="78" as="geometry" />
        </mxCell>
        <mxCell id="4" value="Data" style="swimlane;whiteSpace=wrap" parent="1" vertex="1">
          <mxGeometry x="600" y="128" width="280" height="672" as="geometry" />
        </mxCell>
        <mxCell id="5UBM1-Wupk07-t0-wOQC-48" value="S3 DB에 저장된 원자재, 주식&#xa;지수 데이터" style="fontSize=15;" parent="4" vertex="1">
          <mxGeometry x="40" y="72" width="200" height="78" as="geometry" />
        </mxCell>
        <mxCell id="5UBM1-Wupk07-t0-wOQC-58" value="sdate~ edate까지의&#xa;원자재, 주식, 지수 데이터" style="fontSize=15;" parent="4" vertex="1">
          <mxGeometry x="40" y="312" width="200" height="78" as="geometry" />
        </mxCell>
        <mxCell id="5UBM1-Wupk07-t0-wOQC-64" value="과거 데이터 ~ 오늘날짜 까지의 &#xa;원자재, 주식, 지수 데이터" style="fontSize=15;" parent="4" vertex="1">
          <mxGeometry x="40" y="552" width="200" height="78" as="geometry" />
        </mxCell>
        <mxCell id="5UBM1-Wupk07-t0-wOQC-41" value="원자재(팜유) 시황 예측 AWS Architecture(데이터 수집)" style="text;html=1;resizable=0;points=[];autosize=1;align=left;verticalAlign=top;spacingTop=-4;fontSize=30;fontStyle=1;labelBackgroundColor=none;" parent="1" vertex="1">
          <mxGeometry x="36.5" y="26.5" width="710" height="40" as="geometry" />
        </mxCell>
        <mxCell id="5UBM1-Wupk07-t0-wOQC-42" value="Author: 디지털인프라팀" style="text;html=1;resizable=0;points=[];autosize=1;align=left;verticalAlign=top;spacingTop=-4;fontSize=16;labelBackgroundColor=none;" parent="1" vertex="1">
          <mxGeometry x="36.5" y="76.5" width="190" height="30" as="geometry" />
        </mxCell>
        <mxCell id="5UBM1-Wupk07-t0-wOQC-43" value="" style="line;strokeWidth=2;html=1;fontSize=14;labelBackgroundColor=none;" parent="1" vertex="1">
          <mxGeometry x="32.5" y="101.5" width="857.5" height="10" as="geometry" />
        </mxCell>
        <mxCell id="5UBM1-Wupk07-t0-wOQC-44" value="Update: 2022-07-17" style="text;html=1;resizable=0;points=[];autosize=1;align=left;verticalAlign=top;spacingTop=-4;fontSize=16;labelBackgroundColor=none;" parent="1" vertex="1">
          <mxGeometry x="330" y="76.5" width="170" height="30" as="geometry" />
        </mxCell>
        <mxCell id="5UBM1-Wupk07-t0-wOQC-53" value="" style="endArrow=open;strokeColor=#FF0000;endFill=1;rounded=0;entryX=0.495;entryY=-0.006;entryDx=0;entryDy=0;entryPerimeter=0;" parent="1" target="5UBM1-Wupk07-t0-wOQC-49" edge="1">
          <mxGeometry relative="1" as="geometry">
            <mxPoint x="640" y="240" as="sourcePoint" />
            <mxPoint x="648" y="247.986" as="targetPoint" />
          </mxGeometry>
        </mxCell>
        <mxCell id="5UBM1-Wupk07-t0-wOQC-57" value="sdate" style="endArrow=open;strokeColor=#FF0000;endFill=1;rounded=0;entryX=0.5;entryY=-0.006;entryDx=0;entryDy=0;entryPerimeter=0;exitX=0.495;exitY=1.006;exitDx=0;exitDy=0;exitPerimeter=0;" parent="1" source="5UBM1-Wupk07-t0-wOQC-49" target="5UBM1-Wupk07-t0-wOQC-55" edge="1">
          <mxGeometry relative="1" as="geometry">
            <mxPoint x="189" y="407.5319999999999" as="sourcePoint" />
            <mxPoint x="189" y="450.4680000000001" as="targetPoint" />
          </mxGeometry>
        </mxCell>
        <mxCell id="5UBM1-Wupk07-t0-wOQC-61" value="" style="endArrow=open;strokeColor=#FF0000;endFill=1;rounded=0;entryX=0.505;entryY=-0.006;entryDx=0;entryDy=0;entryPerimeter=0;exitX=-0.005;exitY=0.506;exitDx=0;exitDy=0;exitPerimeter=0;" parent="1" source="5UBM1-Wupk07-t0-wOQC-48" target="5UBM1-Wupk07-t0-wOQC-62" edge="1">
          <mxGeometry relative="1" as="geometry">
            <mxPoint x="650" y="250" as="sourcePoint" />
            <mxPoint x="469" y="329.53200000000004" as="targetPoint" />
          </mxGeometry>
        </mxCell>
        <mxCell id="5UBM1-Wupk07-t0-wOQC-63" value="" style="endArrow=open;strokeColor=#FF0000;endFill=1;rounded=0;entryX=0.525;entryY=0.006;entryDx=0;entryDy=0;entryPerimeter=0;exitX=-0.025;exitY=0.583;exitDx=0;exitDy=0;exitPerimeter=0;" parent="1" source="5UBM1-Wupk07-t0-wOQC-58" target="5UBM1-Wupk07-t0-wOQC-62" edge="1">
          <mxGeometry relative="1" as="geometry">
            <mxPoint x="649" y="249.46799999999996" as="sourcePoint" />
            <mxPoint x="471" y="569.5319999999999" as="targetPoint" />
          </mxGeometry>
        </mxCell>
        <mxCell id="5UBM1-Wupk07-t0-wOQC-66" value="" style="endArrow=open;strokeColor=#FF0000;endFill=1;rounded=0;entryX=1.02;entryY=0.494;entryDx=0;entryDy=0;entryPerimeter=0;exitX=-0.01;exitY=0.494;exitDx=0;exitDy=0;exitPerimeter=0;" parent="1" source="5UBM1-Wupk07-t0-wOQC-64" target="5UBM1-Wupk07-t0-wOQC-65" edge="1">
          <mxGeometry relative="1" as="geometry">
            <mxPoint x="350" y="605.0039999999999" as="sourcePoint" />
            <mxPoint x="180" y="679.998" as="targetPoint" />
          </mxGeometry>
        </mxCell>
        <mxCell id="5UBM1-Wupk07-t0-wOQC-69" value="" style="endArrow=open;strokeColor=#FF0000;endFill=1;rounded=0;entryX=0.005;entryY=0.506;entryDx=0;entryDy=0;entryPerimeter=0;exitX=0.5;exitY=1.006;exitDx=0;exitDy=0;exitPerimeter=0;" parent="1" source="5UBM1-Wupk07-t0-wOQC-62" target="5UBM1-Wupk07-t0-wOQC-64" edge="1">
          <mxGeometry relative="1" as="geometry">
            <mxPoint x="560" y="599" as="sourcePoint" />
            <mxPoint x="640" y="598" as="targetPoint" />
          </mxGeometry>
        </mxCell>
        <mxCell id="5UBM1-Wupk07-t0-wOQC-70" value="&lt;span style=&quot;font-weight: normal;&quot;&gt;&lt;font style=&quot;font-size: 18px;&quot;&gt;with functional programming&lt;/font&gt;&lt;/span&gt;" style="text;html=1;resizable=0;points=[];autosize=1;align=left;verticalAlign=top;spacingTop=-4;fontSize=21;fontStyle=1;labelBackgroundColor=none;" parent="1" vertex="1">
          <mxGeometry x="790" y="36.5" width="250" height="30" as="geometry" />
        </mxCell>
      </root>
    </mxGraphModel>
  </diagram>
</mxfile>
